Normalized EMG Linear Envelopes
nRows=59
nColumns=17

endheader
time	        VM	        VL	        RF	       GRA	        TA	   ADDLONG	   SEMIMEM	      BFLH	        GM	        GL	       TFL	   GLUTMAX	   GLUTMED	      PIRI	    OBTINT	        QF	
1.6865	  0.582635	  0.382586	  0.142232	  0.140962	  0.120261	  1.339127	  0.153319	  0.204248	  0.294872	  0.268237	  0.046014	  0.469763	  0.899590	  0.447832	  0.608098	  1.266337	
1.687	  0.587262	  0.384659	  0.143216	  0.141038	  0.119398	  1.337949	  0.151089	  0.203544	  0.297076	  0.270052	  0.046237	  0.466758	  0.903957	  0.453715	  0.613065	  1.271993	
1.6875	  0.591879	  0.386684	  0.144194	  0.141108	  0.118553	  1.336835	  0.148956	  0.202901	  0.299297	  0.271860	  0.046459	  0.463707	  0.908259	  0.459686	  0.618030	  1.277531	
1.688	  0.596484	  0.388662	  0.145167	  0.141173	  0.117726	  1.335786	  0.146922	  0.202319	  0.301535	  0.273660	  0.046680	  0.460609	  0.912496	  0.465744	  0.622990	  1.282951	
1.6885	  0.601077	  0.390592	  0.146133	  0.141232	  0.116916	  1.334804	  0.144986	  0.201800	  0.303791	  0.275452	  0.046899	  0.457468	  0.916666	  0.471885	  0.627944	  1.288256	
1.689	  0.605657	  0.392472	  0.147094	  0.141285	  0.116125	  1.333891	  0.143148	  0.201342	  0.306067	  0.277236	  0.047116	  0.454283	  0.920767	  0.478109	  0.632887	  1.293448	
1.6895	  0.610222	  0.394303	  0.148049	  0.141333	  0.115351	  1.333050	  0.141408	  0.200947	  0.308362	  0.279011	  0.047332	  0.451056	  0.924798	  0.484411	  0.637818	  1.298530	
1.69	  0.614773	  0.396084	  0.148998	  0.141375	  0.114595	  1.332280	  0.139766	  0.200614	  0.310677	  0.280779	  0.047546	  0.447790	  0.928758	  0.490789	  0.642733	  1.303505	
1.6905	  0.619309	  0.397814	  0.149942	  0.141411	  0.113857	  1.331584	  0.138223	  0.200344	  0.313014	  0.282537	  0.047759	  0.444487	  0.932645	  0.497242	  0.647628	  1.308378	
1.691	  0.623828	  0.399494	  0.150879	  0.141441	  0.113137	  1.330961	  0.136777	  0.200137	  0.315372	  0.284287	  0.047970	  0.441147	  0.936459	  0.503765	  0.652502	  1.313150	
1.6915	  0.628331	  0.401121	  0.151810	  0.141465	  0.112435	  1.330412	  0.135429	  0.199992	  0.317752	  0.286028	  0.048179	  0.437775	  0.940197	  0.510356	  0.657349	  1.317826	
1.692	  0.632815	  0.402696	  0.152734	  0.141483	  0.111751	  1.329937	  0.134179	  0.199910	  0.320155	  0.287760	  0.048387	  0.434372	  0.943858	  0.517012	  0.662167	  1.322408	
1.6925	  0.637281	  0.404218	  0.153652	  0.141495	  0.111084	  1.329535	  0.133025	  0.199890	  0.322580	  0.289483	  0.048592	  0.430940	  0.947441	  0.523730	  0.666952	  1.326898	
1.693	  0.641728	  0.405687	  0.154563	  0.141501	  0.110435	  1.329206	  0.131969	  0.199932	  0.325029	  0.291198	  0.048796	  0.427481	  0.950944	  0.530506	  0.671700	  1.331299	
1.6935	  0.646154	  0.407100	  0.155467	  0.141499	  0.109804	  1.328949	  0.131009	  0.200036	  0.327501	  0.292903	  0.048998	  0.423997	  0.954366	  0.537337	  0.676407	  1.335612	
1.694	  0.650558	  0.408458	  0.156365	  0.141491	  0.109191	  1.328763	  0.130146	  0.200202	  0.329996	  0.294600	  0.049197	  0.420492	  0.957704	  0.544220	  0.681070	  1.339841	
1.6945	  0.654940	  0.409760	  0.157255	  0.141476	  0.108595	  1.328646	  0.129379	  0.200430	  0.332514	  0.296288	  0.049395	  0.416966	  0.960958	  0.551152	  0.685685	  1.343986	
1.695	  0.659299	  0.411004	  0.158138	  0.141454	  0.108017	  1.328597	  0.128707	  0.200719	  0.335056	  0.297968	  0.049590	  0.413423	  0.964127	  0.558130	  0.690248	  1.348051	
1.6955	  0.663634	  0.412190	  0.159013	  0.141425	  0.107457	  1.328615	  0.128130	  0.201068	  0.337622	  0.299640	  0.049783	  0.409863	  0.967208	  0.565149	  0.694756	  1.352037	
1.696	  0.667943	  0.413318	  0.159881	  0.141388	  0.106915	  1.328696	  0.127647	  0.201478	  0.340211	  0.301303	  0.049973	  0.406290	  0.970200	  0.572209	  0.699205	  1.355945	
1.6965	  0.672225	  0.414385	  0.160740	  0.141344	  0.106391	  1.328839	  0.127259	  0.201948	  0.342824	  0.302959	  0.050161	  0.402705	  0.973104	  0.579305	  0.703591	  1.359778	
1.697	  0.676480	  0.415392	  0.161592	  0.141293	  0.105885	  1.329043	  0.126964	  0.202478	  0.345461	  0.304607	  0.050346	  0.399111	  0.975919	  0.586436	  0.707912	  1.363536	
1.6975	  0.680704	  0.416337	  0.162435	  0.141234	  0.105396	  1.329304	  0.126762	  0.203067	  0.348122	  0.306248	  0.050529	  0.395508	  0.978644	  0.593598	  0.712163	  1.367221	
1.698	  0.684897	  0.417221	  0.163269	  0.141167	  0.104926	  1.329622	  0.126652	  0.203714	  0.350806	  0.307882	  0.050709	  0.391899	  0.981280	  0.600789	  0.716341	  1.370832	
1.6985	  0.689055	  0.418043	  0.164094	  0.141093	  0.104473	  1.329995	  0.126634	  0.204420	  0.353514	  0.309508	  0.050887	  0.388285	  0.983828	  0.608007	  0.720444	  1.374371	
1.699	  0.693178	  0.418804	  0.164911	  0.141011	  0.104039	  1.330422	  0.126706	  0.205184	  0.356245	  0.311127	  0.051061	  0.384670	  0.986286	  0.615249	  0.724469	  1.377836	
1.6995	  0.697263	  0.419504	  0.165717	  0.140921	  0.103622	  1.330902	  0.126869	  0.206004	  0.359000	  0.312740	  0.051233	  0.381053	  0.988655	  0.622513	  0.728412	  1.381229	
1.7	  0.701307	  0.420142	  0.166515	  0.140823	  0.103223	  1.331431	  0.127121	  0.206882	  0.361778	  0.314345	  0.051401	  0.377438	  0.990936	  0.629796	  0.732270	  1.384548	
1.7005	  0.705307	  0.420720	  0.167301	  0.140717	  0.102842	  1.332011	  0.127462	  0.207816	  0.364579	  0.315944	  0.051566	  0.373825	  0.993129	  0.637096	  0.736039	  1.387793	
1.701	  0.709262	  0.421237	  0.168078	  0.140603	  0.102478	  1.332640	  0.127890	  0.208807	  0.367402	  0.317536	  0.051728	  0.370216	  0.995236	  0.644411	  0.739717	  1.390963	
1.7015	  0.713167	  0.421695	  0.168844	  0.140480	  0.102132	  1.333316	  0.128406	  0.209853	  0.370246	  0.319122	  0.051886	  0.366613	  0.997257	  0.651739	  0.743300	  1.394056	
1.702	  0.717021	  0.422092	  0.169598	  0.140348	  0.101804	  1.334040	  0.129007	  0.210955	  0.373112	  0.320702	  0.052041	  0.363016	  0.999195	  0.659079	  0.746783	  1.397072	
1.7025	  0.720819	  0.422429	  0.170341	  0.140208	  0.101493	  1.334809	  0.129694	  0.212111	  0.375999	  0.322274	  0.052192	  0.359427	  1.001052	  0.666429	  0.750164	  1.400009	
1.703	  0.724559	  0.422707	  0.171071	  0.140058	  0.101199	  1.335624	  0.130465	  0.213322	  0.378905	  0.323840	  0.052339	  0.355848	  1.002829	  0.673788	  0.753438	  1.402865	
1.7035	  0.728237	  0.422926	  0.171789	  0.139900	  0.100922	  1.336482	  0.131319	  0.214587	  0.381831	  0.325398	  0.052482	  0.352279	  1.004527	  0.681155	  0.756602	  1.405638	
1.704	  0.731849	  0.423088	  0.172494	  0.139733	  0.100661	  1.337383	  0.132256	  0.215905	  0.384776	  0.326950	  0.052621	  0.348721	  1.006149	  0.688529	  0.759654	  1.408326	
1.7045	  0.735392	  0.423192	  0.173185	  0.139557	  0.100418	  1.338325	  0.133274	  0.217276	  0.387738	  0.328493	  0.052756	  0.345175	  1.007697	  0.695907	  0.762589	  1.410927	
1.705	  0.738864	  0.423239	  0.173861	  0.139372	  0.100191	  1.339307	  0.134372	  0.218700	  0.390716	  0.330029	  0.052886	  0.341643	  1.009173	  0.703289	  0.765407	  1.413437	
1.7055	  0.742259	  0.423232	  0.174523	  0.139178	  0.099980	  1.340328	  0.135549	  0.220176	  0.393711	  0.331557	  0.053012	  0.338126	  1.010579	  0.710673	  0.768104	  1.415855	
1.706	  0.745576	  0.423170	  0.175170	  0.138976	  0.099785	  1.341387	  0.136803	  0.221703	  0.396720	  0.333077	  0.053133	  0.334623	  1.011917	  0.718056	  0.770680	  1.418177	
1.7065	  0.748809	  0.423054	  0.175800	  0.138764	  0.099605	  1.342482	  0.138135	  0.223281	  0.399743	  0.334589	  0.053250	  0.331136	  1.013189	  0.725436	  0.773133	  1.420398	
1.707	  0.751956	  0.422886	  0.176413	  0.138544	  0.099441	  1.343614	  0.139542	  0.224910	  0.402778	  0.336092	  0.053361	  0.327666	  1.014397	  0.732811	  0.775462	  1.422517	
1.7075	  0.755014	  0.422665	  0.177009	  0.138314	  0.099292	  1.344783	  0.141024	  0.226589	  0.405825	  0.337586	  0.053468	  0.324212	  1.015541	  0.740179	  0.777667	  1.424528	
1.708	  0.757977	  0.422393	  0.177586	  0.138075	  0.099158	  1.345988	  0.142578	  0.228317	  0.408882	  0.339071	  0.053569	  0.320776	  1.016625	  0.747537	  0.779746	  1.426429	
1.7085	  0.760843	  0.422070	  0.178145	  0.137826	  0.099038	  1.347230	  0.144204	  0.230094	  0.411948	  0.340546	  0.053665	  0.317358	  1.017650	  0.754882	  0.781699	  1.428215	
1.709	  0.763607	  0.421697	  0.178683	  0.137567	  0.098933	  1.348509	  0.145900	  0.231920	  0.415021	  0.342012	  0.053756	  0.313958	  1.018618	  0.762212	  0.783525	  1.429881	
1.7095	  0.766267	  0.421274	  0.179201	  0.137299	  0.098841	  1.349828	  0.147665	  0.233795	  0.418101	  0.343467	  0.053840	  0.310577	  1.019530	  0.769524	  0.785224	  1.431424	
1.71	  0.768817	  0.420801	  0.179698	  0.137020	  0.098763	  1.351188	  0.149498	  0.235716	  0.421185	  0.344910	  0.053919	  0.307214	  1.020388	  0.776815	  0.786795	  1.432838	
1.7105	  0.771253	  0.420279	  0.180172	  0.136731	  0.098699	  1.352592	  0.151397	  0.237685	  0.424273	  0.346343	  0.053992	  0.303870	  1.021193	  0.784083	  0.788238	  1.434117	
1.711	  0.773572	  0.419708	  0.180623	  0.136432	  0.098648	  1.354042	  0.153360	  0.239701	  0.427363	  0.347763	  0.054059	  0.300545	  1.021947	  0.791323	  0.789554	  1.435256	
1.7115	  0.775768	  0.419088	  0.181051	  0.136122	  0.098610	  1.355543	  0.155385	  0.241762	  0.430454	  0.349172	  0.054120	  0.297240	  1.022651	  0.798532	  0.790744	  1.436251	
1.712	  0.777837	  0.418421	  0.181455	  0.135801	  0.098584	  1.357095	  0.157472	  0.243870	  0.433544	  0.350568	  0.054174	  0.293953	  1.023306	  0.805709	  0.791808	  1.437094	
1.7125	  0.779775	  0.417704	  0.181835	  0.135469	  0.098572	  1.358702	  0.159619	  0.246022	  0.436632	  0.351951	  0.054221	  0.290686	  1.023912	  0.812849	  0.792747	  1.437780	
1.713	  0.781576	  0.416939	  0.182189	  0.135127	  0.098571	  1.360366	  0.161824	  0.248220	  0.439717	  0.353322	  0.054262	  0.287438	  1.024471	  0.819948	  0.793563	  1.438303	
1.7135	  0.783237	  0.416126	  0.182517	  0.134773	  0.098583	  1.362092	  0.164085	  0.250461	  0.442797	  0.354680	  0.054296	  0.284210	  1.024982	  0.827004	  0.794256	  1.438658	
1.714	  0.784753	  0.415263	  0.182818	  0.134407	  0.098608	  1.363881	  0.166400	  0.252746	  0.445871	  0.356025	  0.054324	  0.281002	  1.025446	  0.834012	  0.794826	  1.438837	
1.7145	  0.786119	  0.414351	  0.183093	  0.134030	  0.098645	  1.365736	  0.168768	  0.255074	  0.448938	  0.357356	  0.054344	  0.277814	  1.025863	  0.840969	  0.795276	  1.438834	
1.715	  0.787331	  0.413389	  0.183340	  0.133641	  0.098693	  1.367660	  0.171186	  0.257444	  0.451995	  0.358674	  0.054357	  0.274646	  1.026232	  0.847870	  0.795605	  1.438642	
1.7155	  0.788385	  0.412377	  0.183559	  0.133240	  0.098754	  1.369655	  0.173654	  0.259855	  0.455043	  0.359978	  0.054363	  0.271498	  1.026553	  0.854712	  0.795815	  1.438255	
